HIERARCHY
ROOT root
{
	OFFSET	0	13.1	24.9
	CHANNELS 6  Xposition Yposition Zposition Xrotation Yrotation Zrotation
	JOINT spine_1
	{
		OFFSET	0	9.99999	0
		CHANNELS 3  Xrotation Yrotation Zrotation
		JOINT spine_2
		{
			OFFSET	0	112	-10
			CHANNELS 3  Xrotation Yrotation Zrotation
			JOINT spine_3
			{
				OFFSET	0	206.5	19.3
				CHANNELS 3  Xrotation Yrotation Zrotation
				JOINT spine_4
				{
					OFFSET	0	110.4	14.6
					CHANNELS 3  Xrotation Yrotation Zrotation
					JOINT neck_1
					{
						OFFSET	0	71.8	-50.3
						CHANNELS 3  Xrotation Yrotation Zrotation
						JOINT neck_2
						{
							OFFSET	0	86.2	-25.8
							CHANNELS 3  Xrotation Yrotation Zrotation
							JOINT head_ee
							{
								OFFSET	0	179.8	-8.7
								CHANNELS 3  Xrotation Yrotation Zrotation
								End Site
								{
									OFFSET	1	0	0
								}
							}
						}
					}
					JOINT left_clavicle
					{
						OFFSET	-43.2	22.4	-70.8
						CHANNELS 3  Xrotation Yrotation Zrotation
						JOINT left_shoulder
						{
							OFFSET	-93.9	-5.79999	48.7
							CHANNELS 3  Xrotation Yrotation Zrotation
							JOINT left_elbow
							{
								OFFSET	-291.4	-30.8	15.2
								CHANNELS 3  Xrotation Yrotation Zrotation
								JOINT left_lowarm_twist
								{
									OFFSET	-110.7	-3.89999	13.6
									CHANNELS 3  Xrotation Yrotation Zrotation
									JOINT left_hand
									{
										OFFSET	-110.7	-3.89999	13.6
										CHANNELS 3  Xrotation Yrotation Zrotation
										JOINT left_ee
										{
											OFFSET	-80.8	-5.10001	12.1
											CHANNELS 3  Xrotation Yrotation Zrotation
											End Site
											{
												OFFSET	1	0	0
											}
										}
									}
								}
							}
						}
					}
					JOINT right_clavicle
					{
						OFFSET	43.2	22.4	-70.8
						CHANNELS 3  Xrotation Yrotation Zrotation
						JOINT right_shoulder
						{
							OFFSET	93.9	-5.79999	48.7
							CHANNELS 3  Xrotation Yrotation Zrotation
							JOINT right_elbow
							{
								OFFSET	291.4	-30.8	15.2
								CHANNELS 3  Xrotation Yrotation Zrotation
								JOINT right_lowarm_twist
								{
									OFFSET	110.7	-3.89999	13.6
									CHANNELS 3  Xrotation Yrotation Zrotation
									JOINT right_hand
									{
										OFFSET	110.7	-3.89999	13.6
										CHANNELS 3  Xrotation Yrotation Zrotation
										JOINT right_ee
										{
											OFFSET	80.8	-5.10001	12.1
											CHANNELS 3  Xrotation Yrotation Zrotation
											End Site
											{
												OFFSET	1	0	0
											}
										}
									}
								}
							}
						}
					}
				}
			}
		}
	}
	JOINT left_hip
	{
		OFFSET	-82.8	-127.5	0.300001
		CHANNELS 3  Xrotation Yrotation Zrotation
		JOINT left_knee
		{
			OFFSET	-28.2	-396.7	2.2
			CHANNELS 3  Xrotation Yrotation Zrotation
			JOINT left_ankle
			{
				OFFSET	-11.7	-411.3	35.4
				CHANNELS 3  Xrotation Yrotation Zrotation
				JOINT left_toes
				{
					OFFSET	0	-60	-88.6
					CHANNELS 3  Xrotation Yrotation Zrotation
					JOINT left_foot_ee
					{
						OFFSET	-22.5	-16.5	-42.2
						CHANNELS 3  Xrotation Yrotation Zrotation
						End Site
						{
							OFFSET	1	0	0
						}
					}
				}
			}
		}
	}
	JOINT right_hip
	{
		OFFSET	82.8	-127.5	0.300001
		CHANNELS 3  Xrotation Yrotation Zrotation
		JOINT right_knee
		{
			OFFSET	28.2	-396.7	2.2
			CHANNELS 3  Xrotation Yrotation Zrotation
			JOINT right_ankle
			{
				OFFSET	11.7	-411.3	35.4
				CHANNELS 3  Xrotation Yrotation Zrotation
				JOINT right_toes
				{
					OFFSET	0	-60	-88.6
					CHANNELS 3  Xrotation Yrotation Zrotation
					JOINT right_foot_ee
					{
						OFFSET	22.5	-16.5	-42.2
						CHANNELS 3  Xrotation Yrotation Zrotation
						End Site
						{
							OFFSET	1	0	0
						}
					}
				}
			}
		}
	}
}
MOTION
Frames: 15
Frame Time: 0.02
911.899 703.4 -553.123 142.462 -68.224 150.831 -7.94903 0.560764 0.851797 -7.94877 0.505428 0.885751 -7.93948 0.170781 1.0054 -7.94075 0.327414 0.965816 -7.71726 12.2194 2.52968 -7.74238 21.0104 5.14197 -0.0 0.0 -0.0 6.45126 24.8067 11.5509 -14.6573 -5.63682 64.2559 0.982892 -25.9608 0.226569 -75.6524 -7.2682 5.31712 2.60538 9.39899 21.1761 -0.0 0.0 -0.0 13.0146 27.8903 -25.4749 11.1939 22.4016 -52.5019 1.95657 44.0999 -0.792554 80.9278 3.94593 8.6612 0.542016 -8.11874 -6.89983 0.0 0.0 0.0 34.9054 47.9974 -32.3224 -8.90228 0.262903 1.33956 -6.97352 -28.7252 1.30226 -11.2981 0.0 0.0 -0.0 0.0 -0.0 -39.1591 37.9485 0.98516 -6.23884 -0.206136 -0.934818 24.0764 -27.0777 3.43608 -10.212 0.0 0.0 0.0 0.0 0.0 
932.192 707.418 -556.497 142.685 -67.8959 151.47 -8.0118 0.563426 0.889152 -8.0115 0.505707 0.9232 -8.00176 0.157061 1.04084 -8.00313 0.319463 1.00298 -8.40643 12.1258 2.88223 -8.4569 20.6859 5.58707 -0.0 0.0 -0.0 6.511 25.2962 11.5906 -14.6633 -6.13188 63.3376 0.962317 -25.4869 0.217639 -75.2509 -7.21692 5.31844 2.09039 10.4342 18.0003 -0.0 0.0 -0.0 13.0182 27.48 -25.5367 11.0914 23.841 -53.0014 1.82897 42.1731 -0.705297 81.4862 4.01097 8.69132 -0.402649 -11.5281 -2.19962 0.0 0.0 0.0 35.4709 48.9849 -33.4972 -9.33959 0.270422 1.40624 -6.1339 -27.4675 1.12494 -10.6269 0.0 0.0 -0.0 0.0 -0.0 -39.449 38.0616 0.617141 -7.74524 -0.240555 -1.16342 25.5609 -27.6802 3.6377 -10.5086 0.0 0.0 0.0 0.0 0.0 
945.408 702.299 -554.584 143.214 -67.4374 151.896 -7.93498 0.538792 0.951044 -7.9346 0.477186 0.983398 -7.92464 0.111021 1.0874 -7.92619 0.281352 1.05622 -9.45004 11.9133 3.41955 -9.53171 20.0658 6.23819 -0.0 0.0 -0.0 6.69464 25.3705 11.8352 -14.0931 -7.23897 61.671 0.935967 -24.8745 0.206428 -74.6738 -7.14319 5.31969 1.33339 11.954 13.5027 -0.0 0.0 -0.0 13.0128 26.8908 -25.599 11.9136 26.2418 -53.6284 1.68415 39.8342 -0.610259 82.3969 4.11763 8.73907 -1.79663 -16.432 4.31917 0.0 0.0 0.0 35.9315 50.5204 -35.1461 -9.96078 0.280227 1.50106 -4.92093 -25.5922 0.879645 -9.66802 0.0 0.0 -0.0 0.0 -0.0 -38.4808 38.2738 -0.433706 -9.14665 -0.267167 -1.37682 27.6665 -28.2531 3.91361 -10.9249 0.0 0.0 0.0 0.0 0.0 
966.381 712.202 -549.921 144.666 -67.4058 153.803 -7.90467 0.465613 0.836765 -7.90437 0.411426 0.864695 -7.8968 0.0904082 0.953301 -7.89799 0.239823 0.927063 -10.1465 11.1401 3.08471 -10.2471 18.9281 5.83205 -0.0 0.0 -0.0 6.95161 24.9628 12.2291 -13.5151 -8.05134 59.8572 0.887197 -23.7248 0.186357 -73.5601 -7.00087 5.31999 0.352521 13.2147 7.66236 -0.0 0.0 -0.0 13.393 25.0817 -26.6942 11.3798 29.073 -55.4697 1.5185 36.9487 -0.507351 82.6046 4.14207 8.74972 -2.92011 -19.4998 9.60378 0.0 0.0 0.0 36.665 52.2587 -37.7448 -10.8696 0.292718 1.63994 -3.09219 -24.7679 0.545136 -7.87084 0.0 0.0 -0.0 0.0 -0.0 -37.5014 37.7601 -0.830835 -13.8019 -0.317977 -2.08911 31.821 -27.5276 4.38529 -11.0351 0.0 0.0 0.0 0.0 0.0 
982.156 715.448 -556.619 144.942 -67.0038 153.854 -7.87034 0.542241 1.09597 -7.86979 0.471407 1.12825 -7.85825 0.057332 1.22142 -7.86024 0.249499 1.19704 -10.3077 10.4236 2.14927 -10.4171 18.2195 4.76672 -0.0 0.0 -0.0 7.53692 23.7086 13.1893 -12.7235 -7.81814 58.4937 0.770812 -20.8987 0.142159 -73.6156 -7.00796 5.32004 -0.334319 15.3586 4.20689 -0.0 0.0 -0.0 13.516 22.3876 -27.2566 11.6255 28.8756 -55.5349 1.36215 34.0085 -0.416581 82.2338 4.09848 8.73064 -3.73077 -22.1317 12.9731 0.0 0.0 0.0 36.2452 52.8412 -37.5241 -12.1526 0.306598 1.83631 -1.28841 -23.9112 0.223923 -6.96369 0.0 0.0 -0.0 0.0 -0.0 -36.6084 39.0033 -0.202962 -17.8448 -0.315065 -2.70927 32.8982 -26.2429 4.46902 -11.4271 0.0 0.0 0.0 0.0 0.0 
990.049 714.727 -565.104 146.423 -66.5237 155.747 -7.90216 0.595493 1.05676 -7.9017 0.527046 1.0925 -7.88947 0.121195 1.20691 -7.89137 0.310269 1.17263 -10.5059 10.627 2.32044 -10.6248 18.5117 5.0177 -0.0 0.0 -0.0 7.88888 20.7343 14.046 -11.3748 -7.67117 58.1018 0.676451 -18.5258 0.110324 -72.6067 -6.87901 5.31803 -0.562132 16.4186 3.23829 -0.0 0.0 -0.0 13.0037 20.0321 -26.2518 11.2917 28.5412 -55.6535 1.27553 32.2858 -0.369212 82.0093 4.07215 8.71895 -4.15561 -23.2566 14.8141 0.0 0.0 0.0 35.7327 53.5991 -37.1331 -11.7251 0.302462 1.77085 1.30578 -23.3317 -0.223856 -6.29342 0.0 0.0 -0.0 0.0 -0.0 -34.1305 40.8717 0.211683 -22.2195 -0.262673 -3.37831 31.5327 -24.7262 4.27531 -11.7864 0.0 0.0 0.0 0.0 0.0 
999.128 722.836 -573.492 148.915 -66.2154 157.602 -7.92787 0.569331 1.13556 -7.92729 0.495923 1.16948 -7.91472 0.0650317 1.26861 -7.91687 0.264553 1.24243 -11.4352 10.707 2.51023 -11.5886 18.6418 5.37365 -0.0 0.0 -0.0 8.08511 18.8719 14.5567 -9.90339 -7.41781 58.3936 0.680219 -18.6219 0.111525 -72.4635 -6.86071 5.31756 -0.626262 17.2248 3.18152 -0.0 0.0 -0.0 12.6739 19.6881 -25.5097 11.1726 28.1691 -55.8748 1.30644 32.9082 -0.385861 82.4006 4.11807 8.73925 -4.43456 -24.1132 15.9195 0.0 0.0 0.0 35.4144 54.5385 -36.521 -11.0976 0.295505 1.67481 2.66105 -22.8836 -0.452122 -5.83066 0.0 0.0 -0.0 0.0 -0.0 -30.0078 41.783 -0.941664 -27.9823 -0.116044 -4.25017 29.7381 -24.3349 4.06129 -11.431 0.0 0.0 0.0 0.0 0.0 
1012.31 734.38 -584.608 149.839 -65.818 157.911 -8.06649 0.533647 1.04824 -8.066 0.465868 1.08007 -8.05509 0.0645629 1.17447 -8.05693 0.249226 1.14954 -12.7232 10.8053 2.74175 -12.9266 18.8211 5.83951 -0.0 0.0 -0.0 8.3127 16.3897 15.189 -8.06342 -6.95341 58.8307 0.686189 -18.7739 0.113439 -72.2596 -6.83465 5.31681 -0.712303 18.3387 3.12512 -0.0 0.0 -0.0 12.3133 19.5206 -24.6878 11.0968 27.753 -56.4202 1.35686 33.9053 -0.413626 82.9598 4.18395 8.76773 -4.83586 -25.3415 17.4665 0.0 0.0 0.0 34.787 55.7961 -35.4198 -10.3159 0.285371 1.55531 4.57824 -22.2929 -0.768213 -5.18764 0.0 0.0 -0.0 0.0 -0.0 -23.917 42.9318 -2.77965 -35.9808 0.231062 -5.42743 27.1673 -23.8268 3.74822 -10.9299 0.0 0.0 0.0 0.0 0.0 
1018.5 728.754 -589.81 149.948 -65.96 158.354 -8.10718 0.524002 0.863564 -8.10689 0.467992 0.895154 -8.09807 0.129612 1.00175 -8.09936 0.286186 0.968713 -13.1337 11.0986 2.8844 -13.3648 19.3353 6.13819 -0.0 0.0 -0.0 8.47195 14.2108 15.6757 -6.38434 -6.50927 58.531 0.695325 -19.006 0.116396 -71.9777 -6.79862 5.31562 -0.833888 19.9045 3.05513 -0.0 0.0 -0.0 11.5708 19.372 -22.9953 10.9584 27.1572 -57.1611 1.44272 35.5506 -0.462544 83.8739 4.2922 8.81289 -5.32739 -26.8943 19.2476 0.0 0.0 0.0 34.5974 56.9617 -34.8077 -9.19589 0.268007 1.38433 6.54863 -22.3686 -1.09202 -4.43162 0.0 0.0 -0.0 0.0 -0.0 -21.068 44.3562 -2.26825 -42.0814 0.604464 -6.28716 24.3959 -24.1601 3.41686 -10.0946 0.0 0.0 0.0 0.0 0.0 
1016.05 731.64 -599.693 151.582 -66.1121 159.786 -8.02995 0.413218 0.6596 -8.02979 0.37041 0.684556 -8.02448 0.111845 0.770263 -8.02524 0.232087 0.742935 -13.8619 11.5642 3.63178 -14.1248 19.8476 7.12404 -0.0 0.0 -0.0 8.70513 11.3963 16.3458 -3.76383 -6.08018 58.3883 0.733325 -19.9644 0.129072 -71.5597 -6.74521 5.31353 -0.867597 21.8971 3.69591 -0.0 0.0 -0.0 9.89827 19.1424 -19.2358 10.4632 26.2513 -57.4067 1.59463 38.3036 -0.553837 85.1909 4.44939 8.87489 -5.81632 -28.9891 20.4753 0.0 0.0 0.0 33.579 58.7845 -33.6433 -7.6333 0.238204 1.1464 8.56347 -22.4415 -1.41811 -3.60943 0.0 0.0 -0.0 0.0 -0.0 -14.4548 45.8987 -4.05301 -49.0785 1.14286 -7.21882 21.7982 -24.5088 3.09457 -8.92889 0.0 0.0 0.0 0.0 0.0 
1030.59 743.698 -608.144 152.285 -65.6426 160.023 -8.1913 0.28211 0.572814 -8.19115 0.245089 0.589604 -8.18799 0.0250882 0.63802 -8.18854 0.125535 0.626052 -15.9781 11.2566 3.75181 -16.3149 19.4263 7.52048 -0.0 0.0 -0.0 8.95231 11.177 16.8114 -2.4298 -6.60629 57.9453 0.763282 -20.7119 0.139484 -71.6877 -6.76156 5.31421 -0.857287 21.935 3.77197 -0.0 0.0 -0.0 9.57585 19.1422 -18.5165 9.73992 26.2882 -57.4534 1.59919 38.3831 -0.556666 85.2547 4.45705 8.87781 -5.97348 -28.9619 21.4208 0.0 0.0 0.0 32.545 59.6832 -32.3685 -7.05212 0.225465 1.05813 10.5144 -22.5375 -1.72904 -3.37688 0.0 0.0 -0.0 0.0 -0.0 -11.6965 45.5065 -5.39065 -52.3188 1.43006 -7.62689 21.5578 -23.8466 3.05272 -8.9551 0.0 0.0 0.0 0.0 0.0 
1036.02 743.111 -616.856 153.443 -65.6234 161.137 -8.0654 0.0915034 0.456107 -8.06529 0.062295 0.461005 -8.06446 -0.1007 0.454165 -8.06475 -0.0277097 0.464369 -16.6575 11.3071 3.98046 -17.0199 19.4662 7.87899 -0.0 0.0 -0.0 9.24684 10.8978 17.3732 -0.617596 -7.31607 57.2975 0.805972 -21.7645 0.154949 -71.8695 -6.78479 5.31512 -0.841915 21.9824 3.88149 -0.0 0.0 -0.0 9.09849 18.88 -17.4741 8.50973 26.039 -57.1866 1.54426 37.4127 -0.522923 85.3425 4.46758 8.8818 -5.94676 -28.7974 21.4002 0.0 0.0 0.0 31.8116 60.4675 -31.8813 -6.21189 0.205466 0.930735 10.4506 -22.472 -1.71787 -3.25495 0.0 0.0 -0.0 0.0 -0.0 -8.17222 44.8514 -6.3849 -52.1568 1.41515 -7.60687 21.3643 -22.8858 3.01303 -9.00319 0.0 0.0 0.0 0.0 0.0 
1043.53 747.238 -617.69 153.414 -65.2255 161.153 -7.90244 0.0143737 0.393455 -7.90235 -0.0106917 0.393572 -7.90224 -0.144882 0.366091 -7.90242 -0.0852466 0.384378 -16.6178 11.479 4.10606 -16.9866 19.7218 8.05393 -0.0 0.0 -0.0 9.2498 10.5468 17.4127 0.408122 -7.82716 56.8143 0.85073 -22.8517 0.17194 -72.1901 -6.82577 5.31653 -0.839592 22.0452 3.92136 -0.0 0.0 -0.0 9.12358 18.7316 -17.5398 8.49877 25.8393 -57.0143 1.47083 36.075 -0.47899 85.4672 4.48255 8.88745 -5.90303 -28.4301 21.4458 0.0 0.0 0.0 30.547 61.5153 -30.9564 -5.01901 0.173866 0.750401 10.3621 -22.3859 -1.70245 -3.08134 0.0 0.0 -0.0 0.0 -0.0 -5.01243 42.5981 -8.12158 -51.9373 1.39505 -7.57969 21.1102 -20.6325 2.9499 -9.079 0.0 0.0 0.0 0.0 0.0 
1050.56 741.501 -625.298 154.07 -64.6858 162.448 -7.72195 -0.0267942 0.18622 -7.72193 -0.0385896 0.184138 -7.72203 -0.098836 0.160086 -7.72206 -0.072313 0.173686 -16.3283 11.7546 4.25035 -16.6987 20.1376 8.237 -0.0 0.0 -0.0 9.25552 10.1233 17.4635 1.58248 -8.36422 56.2164 0.898647 -23.9966 0.190989 -72.6087 -6.87927 5.31804 -0.82706 22.1352 4.03197 -0.0 0.0 -0.0 9.47419 18.5239 -18.3318 8.54137 25.5342 -56.9743 1.3585 33.9373 -0.41454 85.4284 4.47789 8.88569 -5.83876 -27.8911 21.5063 0.0 0.0 0.0 30.879 62.0921 -31.6992 -3.16091 0.117178 0.470886 10.1555 -22.2607 -1.66784 -2.86876 0.0 0.0 -0.0 0.0 -0.0 -2.77256 39.3301 -8.33371 -51.7704 1.37982 -7.55896 20.6823 -17.5443 2.86253 -9.22506 0.0 0.0 0.0 0.0 0.0 
1058.32 745.005 -625.554 155.844 -63.9998 164.998 -7.4753 -0.0797742 -0.107792 -7.47529 -0.0727535 -0.11265 -7.47513 -0.0307316 -0.130532 -7.47515 -0.050961 -0.124041 -15.8349 12.1287 4.43301 -16.2013 20.6935 8.44954 -0.0 0.0 -0.0 9.27193 9.90889 17.5138 2.51571 -8.86199 55.6259 0.958154 -25.3905 0.215851 -73.1736 -6.95147 5.31944 -0.808901 22.2596 4.18952 -0.0 0.0 -0.0 9.96624 18.2208 -19.4477 8.11523 24.9788 -56.8334 1.20703 30.8753 -0.333337 85.2339 4.45456 8.87686 -5.73978 -27.1288 21.5311 0.0 0.0 0.0 31.5303 62.8684 -32.9994 -0.507043 0.0205461 0.0750984 9.85622 -22.0764 -1.61769 -2.57733 0.0 0.0 -0.0 0.0 -0.0 -0.54991 34.7544 -7.91714 -51.8023 1.38273 -7.56293 20.0651 -13.1421 2.75393 -9.44069 0.0 0.0 0.0 0.0 0.0 
